<svg xmlns="http://www.w3.org/2000/svg" viewBox="0 0 128 128">
  <!-- Brand mark (catalog avatar, demo favicon): speech bubble + the FAB sparkle.
       Submitted to astro.build's integrations library (public/assets/integrations/). -->
  <defs>
    <linearGradient id="g" x1="0" y1="0" x2="1" y2="1">
      <stop offset="0" stop-color="#6b83ff"/>
      <stop offset="1" stop-color="#4257e0"/>
    </linearGradient>
  </defs>
  <rect width="128" height="128" rx="28" fill="url(#g)"/>
  <path d="M64 26c-23.7 0-43 15.8-43 35.3 0 11.2 6.4 21.2 16.3 27.7-.5 5.8-2.8 11.1-6.1 15.4 8.6-.9 16.2-4.4 21.9-9 3.5.8 7.2 1.2 10.9 1.2 23.7 0 43-15.8 43-35.3S87.7 26 64 26z" fill="#fff"/>
  <g fill="url(#g)" transform="translate(41 38.6) scale(1.92)">
    <path d="M12 3l1.9 5.7a1 1 0 0 0 .63.63L20.2 11.2a.85.85 0 0 1 0 1.6l-5.67 1.87a1 1 0 0 0-.63.63L12 21l-1.9-5.7a1 1 0 0 0-.63-.63L3.8 12.8a.85.85 0 0 1 0-1.6l5.67-1.87a1 1 0 0 0 .63-.63L12 3z"/>
  </g>
</svg>
